<?xml version="1.0" encoding="utf-8"?>
<!-- Generator: Adobe Illustrator 23.0.1, SVG Export Plug-In . SVG Version: 6.00 Build 0)  -->
<svg version="1.1" id="Ebene_1" xmlns="http://www.w3.org/2000/svg" xmlns:xlink="http://www.w3.org/1999/xlink" x="0px" y="0px"
	 viewBox="0 0 28.4 56.7" style="enable-background:new 0 0 28.4 56.7;" xml:space="preserve">
<style type="text/css">
	.st0{opacity:0.7;fill:#E5E4E4;}
	.st1{opacity:0.19;}
	.st2{fill:#6B6C6C;}
	.st3{fill:#1e2129;}
</style>
<g>
	<path class="st0" d="M28.3,49.8c0,2.9-6.3,5.3-14.2,5.3C6.4,55.1,0,52.7,0,49.8c0,0,0,0,0-0.1c0,0,0-0.1,0-0.1L0.2,49
		c0-0.1,0-0.1,0.1-0.2L14.2,1.6L28,48.8L28.3,49.8z"/>
	<g class="st1">
		<path class="st2" d="M28.3,49.8h-0.4c0-2.8-6.2-5-13.8-5c-7.6,0-13.8,2.2-13.8,5H0c0-3,6.2-5.4,14.2-5.4
			C22.1,44.4,28.3,46.8,28.3,49.8z"/>
	</g>
	<path class="st3" d="M8.9,18.5L4.1,2.8c6.7-1.6,13.5-1.6,20.2,0l-4.8,15.7L8.9,18.5z"/>
</g>
</svg>
